<svg width="1512" height="122" viewBox="0 0 1512 122" fill="none" xmlns="http://www.w3.org/2000/svg">
<path d="M-40 46.5781C-34.9694 67.7885 -3.77951 108.997 80.735 104.149C186.378 98.0891 193.924 -23.7193 271 11.4294C348.077 46.5781 376.104 161.72 512.47 104.149C648.836 46.578 656.382 -23.7193 787.358 11.4294C918.334 46.578 995.949 104.755 1124.23 46.5781C1252.51 -11.5986 1434.15 22.9446 1509.07 63.5469C1540.12 84.3937 1576.63 48.8006 1591 28.3982" stroke="#828A66" stroke-width="3" stroke-linecap="round"/>
<path d="M-40 46.5781C-34.9694 67.7885 -3.77951 108.997 80.735 104.149C186.378 98.0891 193.924 -23.7193 271 11.4294C348.077 46.5781 376.104 161.72 512.47 104.149C648.836 46.578 656.382 -23.7193 787.358 11.4294C918.334 46.578 995.949 104.755 1124.23 46.5781C1252.51 -11.5986 1434.15 22.9446 1509.07 63.5469C1540.12 84.3937 1576.63 48.8006 1591 28.3982" stroke="#828A66" stroke-width="3" stroke-linecap="round"/>
</svg>
